<?xml version="1.0" encoding="utf-8"?>
<!-- Generator: Adobe Illustrator 16.0.0, SVG Export Plug-In . SVG Version: 6.00 Build 0)  -->
<!DOCTYPE svg PUBLIC "-//W3C//DTD SVG 1.1//EN" "http://www.w3.org/Graphics/SVG/1.1/DTD/svg11.dtd">
<svg version="1.1" id="Layer_1" xmlns="http://www.w3.org/2000/svg" xmlns:xlink="http://www.w3.org/1999/xlink" x="0px" y="0px"
	 width="471px" height="272px" viewBox="0 0 471 272" enable-background="new 0 0 471 272" xml:space="preserve">
<g>
	<g>
		<path fill="#746196" d="M0,254v9.496C0,268.173,3.827,272,8.504,272h453.993c4.676,0,8.504-3.827,8.504-8.504V254H0z"/>
	</g>
	<g>
		<path fill="#746196" d="M471,110V8.504C471,3.827,467.172,0,462.497,0H8.504C3.827,0,0,3.827,0,8.504V110H471z"/>
	</g>
</g>
<g>
	<path fill="#FFFFFF" d="M174.419,60.2V43.341H155.52V60.2H147V20.182h8.52v15.72h18.899v-15.72h8.58V60.2H174.419z"/>
	<path fill="#FFFFFF" d="M190.859,60.2V20.182h28.319v7.5h-19.799v8.399h19.379v7.5h-19.379v9.12h19.799v7.5H190.859z"/>
	<path fill="#FFFFFF" d="M225.479,60.2V20.182h8.58v32.519h16.919v7.5H225.479z"/>
	<path fill="#FFFFFF" d="M256.378,60.2V20.182h8.58v32.519h16.919v7.5H256.378z"/>
	<path fill="#FFFFFF" d="M284.099,40.221c0-12.06,8.819-20.699,20.939-20.699c12.059,0,20.879,8.64,20.879,20.699
		c0,12.059-8.82,20.699-20.879,20.699C292.918,60.92,284.099,52.28,284.099,40.221z M317.158,40.221c0-7.5-4.74-13.14-12.119-13.14
		c-7.44,0-12.18,5.64-12.18,13.14c0,7.439,4.739,13.139,12.18,13.139C312.417,53.36,317.158,47.661,317.158,40.221z"/>
</g>
<g>
	<path fill="#FFFFFF" d="M186.34,92.858V82.224l-4.157,10.635h-1.371l-4.156-10.635v10.635h-3.14V78.111h4.4l3.582,9.22l3.582-9.22
		h4.422v14.747H186.34z"/>
	<path fill="#FFFFFF" d="M196.532,92.858v-6.036l-5.66-8.711h3.582l3.648,5.903l3.648-5.903h3.56l-5.638,8.711v6.036H196.532z"/>
	<path fill="#FFFFFF" d="M222.533,92.858l-7.031-9.617v9.617h-3.14V78.111h3.228l6.832,9.264v-9.264h3.139v14.747H222.533z"/>
	<path fill="#FFFFFF" d="M238.673,92.858l-0.929-2.498h-6.324l-0.929,2.498h-3.56l5.682-14.747h3.936l5.683,14.747H238.673z
		 M234.583,81.251l-2.299,6.346h4.599L234.583,81.251z"/>
	<path fill="#FFFFFF" d="M256.427,92.858V82.224l-4.157,10.635h-1.37l-4.157-10.635v10.635h-3.14V78.111h4.4l3.582,9.22l3.581-9.22
		h4.422v14.747H256.427z"/>
	<path fill="#FFFFFF" d="M262.507,92.858V78.111h10.437v2.764h-7.297v3.096h7.142v2.764h-7.142v3.36h7.297v2.764H262.507z"/>
	<path fill="#FFFFFF" d="M281.079,92.858V78.111h3.14v14.747H281.079z"/>
	<path fill="#FFFFFF" d="M286.12,90.78l1.725-2.454c1.039,1.083,2.653,2.012,4.688,2.012c1.746,0,2.564-0.773,2.564-1.636
		c0-2.565-8.49-0.774-8.49-6.323c0-2.455,2.122-4.488,5.594-4.488c2.344,0,4.289,0.707,5.749,2.056l-1.747,2.344
		c-1.194-1.105-2.786-1.614-4.289-1.614c-1.327,0-2.079,0.575-2.079,1.46c0,2.321,8.469,0.751,8.469,6.257
		c0,2.697-1.946,4.731-5.903,4.731C289.546,93.124,287.512,92.173,286.12,90.78z"/>
</g>
<g>
	<path d="M178.207,157.654c-0.558-3.531-1.673-6.807-3.346-9.828c-1.673-3.019-3.579-5.134-5.715-6.343
		c-1.952-1.207-3.812-1.394-5.576-0.558c-2.509,1.024-4.833,3.533-6.97,7.528c-3.997,7.436-6.6,16.498-7.807,27.183
		c-1.209,10.594-1.023,20.121,0.558,28.577c1.3,8.643,3.786,14.894,7.458,18.749c3.67,3.857,7.503,5.506,11.5,4.948
		c4.088-0.648,7.828-3.391,11.222-8.225c3.392-4.831,5.367-11.383,5.924-19.655c0.092-0.836,0.418-1.509,0.976-2.021
		c0.558-0.509,1.23-0.719,2.021-0.627c0.789,0.094,1.44,0.418,1.952,0.976c0.51,0.558,0.719,1.209,0.627,1.952
		c-0.651,9.294-3.021,16.915-7.109,22.861c-4.09,5.948-9.015,9.34-14.776,10.176c-6.042,0.929-11.385-1.114-16.031-6.133
		c-4.739-5.11-7.854-12.498-9.34-22.165c-0.836-6.504-1.254-13.079-1.254-19.725c0-6.644,0.791-13.522,2.37-20.632
		s3.81-13.358,6.691-18.749c2.879-5.297,6.134-8.688,9.758-10.176c3.531-1.579,7.109-1.3,10.734,0.836
		c2.879,1.767,5.367,4.509,7.458,8.225c2.091,3.718,3.507,7.715,4.252,11.988c0.091,0.745-0.094,1.418-0.558,2.021
		c-0.466,0.605-1.07,0.976-1.812,1.115c-0.745,0.14-1.418-0.022-2.021-0.488C178.786,159.002,178.392,158.398,178.207,157.654z"/>
	<path d="M218.493,180.655c-1.767,0.372-3.579,0.558-5.437,0.558l-4.043,0.696v48.651c0,0.744-0.279,1.394-0.836,1.951
		s-1.208,0.836-1.952,0.836c-0.745,0-1.394-0.278-1.951-0.836s-0.836-1.207-0.836-1.951v-92.423c0-0.743,0.279-1.394,0.836-1.952
		s1.207-0.836,1.951-0.836c0.743,0,1.394,0.279,1.952,0.836s0.836,1.209,0.836,1.952v0.14c4.367-2.137,9.479-3.207,15.334-3.207
		c8.271,0,14.031,2.788,17.286,8.364c2.879,4.927,3.112,10.688,0.696,17.286c-2.323,6.412-6.506,11.57-12.545,15.474
		c9.571,2.975,15.659,10.921,18.261,23.837c0.37,1.952,0.673,3.997,0.906,6.134c0.23,2.139,0.395,4.415,0.487,6.831
		c0.092,2.417,0.161,4.391,0.21,5.924c0.045,1.534,0.045,3.625,0,6.273c-0.049,2.648-0.07,4.346-0.07,5.088
		c0,0.745-0.278,1.395-0.836,1.952s-1.209,0.836-1.952,0.836c-0.745,0-1.394-0.278-1.951-0.836s-0.837-1.207-0.837-1.952
		c0-0.836,0.022-2.579,0.07-5.228c0.046-2.648,0.046-4.691,0-6.134c-0.048-1.439-0.118-3.321-0.209-5.646
		c-0.094-2.322-0.233-4.461-0.419-6.412c-0.187-1.952-0.466-3.855-0.836-5.716c-2.139-10.779-6.97-17.331-14.498-19.655
		C225.415,180.655,222.208,180.376,218.493,180.655z M217.656,175.079c4.739-0.928,8.804-2.903,12.197-5.925
		c3.392-3.02,5.831-6.434,7.319-10.246c1.764-5.018,1.673-9.246-0.279-12.685c-2.23-3.716-6.412-5.576-12.546-5.576
		c-5.854,0-10.967,1.303-15.334,3.903v31.086c1.207,0.094,2.37,0.14,3.485,0.14C214.45,175.497,216.168,175.267,217.656,175.079z"/>
	<path d="M267.561,138.138v92.423c0,0.744-0.278,1.394-0.836,1.951s-1.209,0.836-1.952,0.836c-0.745,0-1.394-0.278-1.951-0.836
		s-0.837-1.207-0.837-1.951v-92.423c0-0.743,0.279-1.394,0.837-1.952s1.206-0.836,1.951-0.836c0.743,0,1.395,0.279,1.952,0.836
		S267.561,137.395,267.561,138.138z"/>
	<path d="M285.543,198.22v32.341c0,0.744-0.278,1.394-0.836,1.951s-1.209,0.836-1.952,0.836c-0.745,0-1.394-0.278-1.951-0.836
		s-0.837-1.207-0.837-1.951v-92.423c0-0.743,0.279-1.394,0.837-1.952s1.206-0.836,1.951-0.836c0.743,0,1.395,0.279,1.952,0.836
		s0.836,1.209,0.836,1.952v2.509c4.273-2.879,9.664-4.367,16.171-4.461c4.273-0.091,7.897,0.884,10.873,2.928
		c3.066,1.952,5.389,4.694,6.97,8.225c2.974,6.412,3.346,13.988,1.115,22.722c-1.023,3.903-2.533,7.575-4.53,11.013
		c-2,3.439-4.461,6.575-7.389,9.409c-2.927,2.836-6.391,4.949-10.385,6.343C294.372,198.22,290.096,198.686,285.543,198.22z
		 M285.543,147.617v45.026c7.249,0.93,13.521-0.976,18.819-5.716c5.297-4.739,8.922-10.825,10.873-18.262
		c1.951-7.434,1.719-13.801-0.697-19.097c-2.417-5.297-6.691-7.898-12.824-7.807c-3.439,0.094-6.321,0.536-8.644,1.324
		c-2.323,0.791-4.739,2.208-7.248,4.252L285.543,147.617z"/>
</g>
</svg>
